<?xml version="1.0" encoding="UTF-8"?>
<svg width="324px" height="276px" viewBox="0 0 324 276" version="1.1" xmlns="http://www.w3.org/2000/svg" xmlns:xlink="http://www.w3.org/1999/xlink">
    <!-- Generator: Sketch 51.2 (57519) - http://www.bohemiancoding.com/sketch -->
    <title>noun_analytics_1084170</title>
    <desc>Created with Sketch.</desc>
    <defs></defs>
    <g id="Page-1" stroke="none" stroke-width="1" fill="none" fill-rule="evenodd">
        <g id="noun_analytics_1084170" fill="#000000" fill-rule="nonzero">
            <g id="Group">
                <polygon id="Shape" points="301.518367 248.924695 301.518367 84.358804 260.522449 84.358804 260.522449 248.924695 222.171429 248.924695 222.171429 146.940199 181.17551 146.940199 181.17551 248.924695 142.82449 248.924695 142.82449 121.444075 101.828571 121.444075 101.828571 248.924695 63.477551 248.924695 63.477551 173.760797 22.4816327 173.760797 22.4816327 248.924695 0.66122449 248.924695 0.66122449 275.745293 323.338776 275.745293 323.338776 248.924695"></polygon>
                <path d="M281.020408,0.254706534 C268.787755,0.254706534 258.869388,10.1882614 258.869388,22.4396456 C258.869388,25.0885936 259.530612,27.7375415 260.191837,30.3864895 L213.906122,67.1406423 C210.269388,64.8228128 205.971429,63.1672204 201.342857,63.1672204 C193.738776,63.1672204 187.457143,66.8095238 183.489796,72.4385382 L144.146939,59.8560354 C144.146939,59.8560354 144.146939,59.8560354 144.146939,59.8560354 C144.146939,47.6046512 134.228571,37.6710963 121.995918,37.6710963 C109.763265,37.6710963 99.844898,47.6046512 99.844898,59.8560354 C99.844898,61.8427464 100.17551,64.1605759 100.836735,65.8161683 L56.8653061,94.9545958 C52.8979592,91.9745293 48.2693878,89.9878184 42.9795918,89.9878184 C30.7469388,89.9878184 20.8285714,99.9213732 20.8285714,112.172757 C20.8285714,124.424142 30.7469388,134.357697 42.9795918,134.357697 C55.2122449,134.357697 65.1306122,124.424142 65.1306122,112.172757 C65.1306122,110.186047 64.8,107.868217 64.1387755,106.212625 L108.440816,77.0741971 C112.408163,80.0542636 117.036735,82.0409745 122.326531,82.0409745 C129.930612,82.0409745 136.212245,78.3986711 140.179592,72.7696567 L179.522449,85.021041 C179.522449,85.021041 179.522449,85.021041 179.522449,85.3521595 C179.522449,97.6035437 189.440816,107.537099 201.673469,107.537099 C213.906122,107.537099 223.82449,97.6035437 223.82449,85.3521595 C223.82449,82.7032115 223.163265,80.0542636 222.502041,77.4053156 L268.787755,40.6511628 C272.42449,42.9689922 276.722449,44.6245847 281.35102,44.6245847 C293.583673,44.6245847 303.502041,34.6910299 303.502041,22.4396456 C303.171429,10.1882614 293.253061,0.254706534 281.020408,0.254706534 Z" id="Shape"></path>
            </g>
        </g>
    </g>
</svg>