<svg xmlns="http://www.w3.org/2000/svg" xmlns:xlink="http://www.w3.org/1999/xlink" version="1.1" x="0px" y="0px" viewBox="0 0 100 125" style="enable-background:new 0 0 100 100;" xml:space="preserve"><path d="M65,50c12.3-5.7,20.9-18.2,20.9-32.6h-7c0,14.7-11.1,26.9-25.4,28.7V17.4h-7v28.7c-14.3-1.7-25.4-13.9-25.4-28.7h-7  c0,14.4,8.6,26.9,20.9,32.6c-12.3,5.7-20.9,18.2-20.9,32.6h7c0-14.7,11.1-26.9,25.4-28.7v28.7h7V53.9c14.3,1.7,25.4,13.9,25.4,28.7  h7C85.9,68.2,77.3,55.7,65,50z"/><text x="0" y="115" fill="#000000" font-size="5px" font-weight="bold" font-family="'Helvetica Neue', Helvetica, Arial-Unicode, Arial, Sans-serif">Created by Mike Rowe</text><text x="0" y="120" fill="#000000" font-size="5px" font-weight="bold" font-family="'Helvetica Neue', Helvetica, Arial-Unicode, Arial, Sans-serif">from the Noun Project</text></svg>