<svg xmlns="http://www.w3.org/2000/svg" xmlns:xlink="http://www.w3.org/1999/xlink" width="303" height="276" version="1.1" viewBox="0 0 303 276"><title>noun_User Experience_400131</title><desc>Created with Sketch.</desc><g id="Page-1" fill="none" fill-rule="evenodd" stroke="none" stroke-width="1"><g id="noun_User-Experience_400131" fill="#000" fill-rule="nonzero"><path id="Shape" d="M214.800836,138 C266.707521,113.871166 303,60.9570552 303,0 L273.45961,1.50390947e-14 C273.45961,62.2269939 226.616992,113.871166 166.270195,121.490798 L166.270195,1.50390947e-14 L136.729805,1.50390947e-14 L136.729805,121.490798 C76.3830084,114.294479 29.54039,62.6503067 29.54039,0 L0,0 C0,60.9570552 36.2924791,113.871166 88.1991643,138 C36.2924791,162.128834 0,215.042945 0,276 L29.54039,276 C29.54039,213.773006 76.3830084,162.128834 136.729805,154.509202 L136.729805,276 L166.270195,276 L166.270195,154.509202 C226.616992,161.705521 273.45961,213.349693 273.45961,276 L303,276 C303,215.042945 266.707521,162.128834 214.800836,138 Z"/></g></g></svg>